<?xml version="1.0" encoding="UTF-8"?>
<svg id="Layer_1" xmlns="http://www.w3.org/2000/svg" viewBox="0 0 881.68 895.22">
  <defs>
    <style>
      .cls-1 {
        fill: #c30404;
      }

      .cls-2 {
        fill: #ef4545;
      }

      .cls-3 {
        fill: #648175;
      }

      .cls-4 {
        fill: #eaeaea;
      }
    </style>
  </defs>
  <path class="cls-2" d="M535.88,836.04c3.22,10.91,6.43,21.82,9.92,33.64-13.04-5.33-25.61-10.48-38.26-15.65-2.25,14.38-5.02,20.68-11.27,25.48.65-2.9.95-5.63,1.89-8.11,2.13-5.65.42-10.65-3.13-14.69-6.64-7.56-13.84-14.63-21.35-21.63,4.83,22.11,3.86,42.55-13.65,60.14.72-5.15,1.27-9.56,1.97-13.94.76-4.73-1.49-7.41-5.87-8.09-13.33-2.07-24.64-8.22-35.48-17.59.84,4.3,1.51,7.69,2.17,11.07-.25.14-.49.29-.74.43-6.68-10.2-13.36-20.39-20.66-31.52-1.45,15.82-2.8,30.62-4.15,45.42-.75.15-1.5.31-2.25.46-21.94-45.75-43.87-91.51-65.81-137.26-2.61,16.7,2.05,32.18,6.45,47.84-15.85-16.2-25.3-35.85-32.67-57.01,0,3.49-.14,6.99.04,10.48.19,3.8.56,7.59,1.07,11.36.48,3.52,1.24,7.01,1.35,10.67-11.11-18.74-15.28-39.99-22.72-60.66-2.82,8.24-5.63,16.49-8.7,25.46-5.54-7.73-11.35-15.07-16.31-22.95-4.92-7.83-8.97-16.19-13.47-24.45v11.46c-9.16-21.58-9.15-43.72-4.34-66.2-8.11,1.63-27.08,21-37.11,32.18,2.36-5.97,4.72-11.94,7.53-19.05-8.92,7.48-17.05,13.95-24.78,20.87-7.78,6.96-15.18,14.36-22.21,21.05-6.02-37.84,10.05-81.93,60.68-105.95-4.32-1.68-8.08-3.15-11.83-4.61-16.01-6.25-29.9-16.13-43.77-25.93-7.78-5.5-11.28-13.53-12.59-23.08-1.94-14.25-9.41-25.96-19.56-35.86-9.84-9.6-20.03-18.86-30.06-28.27l1.01-.82c8.11,2.94,16.22,5.87,25.69,9.3-16.08-27.94-37.28-50.37-59.03-72.22-21.76-21.86-44.62-42.53-73.88-56.68,62.82,5.69,121.31,24.16,179.78,42.7.31-.55.61-1.1.92-1.65-1.8-3.41-3.34-7-5.45-10.21-8.69-13.21-12.95-27.65-13.32-43.44-.38-16.07-1.24-32.12-1.89-48.18-.04-.93,0-1.86.31-2.9,9.12,19.8,15.67,41.11,33.63,54.72,0-7.3-.67-15,.19-22.53.85-7.48,3.23-14.78,5.8-22.11,3.25,15.25,6.35,29.9,26.77,32.75-4.84-9.13-8.91-17.37-13.48-25.31-12.69-22.07-27.67-42.53-45.77-60.42-17.56-17.35-36.08-33.63-59.08-43.81-24.88-11.01-48.25-7.52-70.58,6.95-2.56,1.66-5.17,3.22-8.65,4.11.74-1.26,1.26-2.73,2.25-3.75,16.15-16.66,34.68-29.28,57.81-34.29,16.9-3.66,33.41-2.25,49.51,3.49,20.69,7.38,39.24,18.79,56.8,31.8,14.58,10.8,28.85,22.01,43.27,33.02.59.45,1.35.67,2.31.61-28.5-31.09-59.16-59.71-93.96-83.74.21-.38.43-.76.64-1.13,7.54,3.07,15.31,5.69,22.59,9.29,21.25,10.54,42.22,21.64,63.47,32.16,7.62,3.77,15.75,6.54,24.04,9.04-17.01-8.78-33.83-17.61-47.24-31.69-13.62-14.29-22.13-30.99-25.1-50.68,2.96,3.36,5.93,6.72,9.16,10.39-3.61-33.99,5.33-65.52,14.8-97.06,1.09,8.48,2.04,16.97,3.31,25.42,4.86,32.3,22.13,52.89,54.32,60.14,19.78,4.45,39.95,7.15,59.79,11.38,21.44,4.58,42.69,10.03,64.02,15.11,1.86.44,3.7,1.01,6.52,1.79-12.45-20.52-28.59-34.13-52.18-37.73,16.15-4.24,31.12,1.79,46.55,5.08-19.08-24.97-43.74-40.06-76.16-42.96,12.86-3.55,24.16-.76,35.43,4,30.07,12.69,60.25,25.11,90.39,37.63,1.6.67,3.26,1.19,5.05,1.83,2.47-18.9-2.37-35.48-13.39-50.42.32-.25.63-.51.95-.76,5.71,3.95,11.47,7.83,17.1,11.9,2.51,1.82,4.75,4.01,7.11,6.04.45.31.91.63,1.36.94-.22-.59-.44-1.17-.66-1.76-3.88-10.98-11.81-18.87-20.28-26.27-3.82-3.34-8.13-6.13-12.14-9.78,1.62.43,3.34.66,4.85,1.33,11.58,5.15,20.6,13.8,30.13,21.84,18.35,15.48,36.74,30.93,55.6,45.79,10.55,8.31,22.05,15.42,33.18,23.01,1.99,1.35,4.21,2.35,7.84,4.35.63-5.75,1.94-10.54,1.54-15.18-2.36-27.26-15.15-48.6-37.57-64.2-3.18-2.21-6.46-4.26-10.67-7.03,11.27,1.22,20.74,4.79,29.91,9.16,9.26,4.42,18.32,9.24,27.47,13.89.41-.26.82-.53,1.22-.79-4.25-6.8-7.93-14.06-12.92-20.27-5.02-6.25-11.35-11.46-17.11-17.13.33-.26.66-.52.99-.78,6.9,4.58,14.21,8.66,20.64,13.84,19.87,16.01,33.97,36.51,44.69,59.47.55,1.17,1.34,2.24,2.96,2.95l-14.65-32.64c.37-.3.73-.59,1.1-.89,6.4,6.22,12.81,12.43,20.07,19.49-9.91-40.08-38.24-86.48-108.83-96.81,14.61-.96,27.44,1.01,40.13,4.17,22.56,5.61,42.97,15.86,61.34,29.89,16.77,12.81,31,28.25,43.78,45.06,13.68,18,25.31,37.21,34.6,57.78,9.29,20.58,16.56,41.87,21.12,64.04,1.64,7.99,3.38,15.96,5.86,23.91.35-7.1,1.08-14.21.94-21.31-.13-7.07-.86-14.16-1.81-21.17-.96-7.07-2.52-14.06-4.03-22.24,31.74,54.87,37.32,110.31,10.62,168.93,2.42-2.03,4-3.22,5.42-4.59,1.52-1.47,2.88-3.1,4.91-4.28-4.58,10.54-12.13,19.31-17.34,29.6,31.28-13.29,53.83-35.47,68.38-66.74-.52,5.68-.86,11.37-1.59,17.02-2.93,22.63-14.74,41.04-28.02,58.79-9.17,12.25-18.07,24.69-26.96,37.14-1.54,2.16-2.42,4.79-3.88,7.76,53.84-8.05,107.16-13.07,161.15-11.38-29.12,8.37-56.68,20.35-83.04,35.15-26.64,14.96-51.36,32.67-75.3,51.53.1.46.2.91.3,1.37,8.33-1.57,16.66-3.14,24.99-4.72.07.18.15.37.22.55-4.74,3.08-9.91,5.67-14.15,9.33-11.1,9.6-22.18,19.29-32.48,29.72-5.16,5.22-6.46,12.85-6.2,20.24.16,4.42-1.18,7.4-5.08,9.78-9.77,5.98-19.3,12.36-28.97,18.5-4.93,3.13-5.49,5.13-1.18,9.05,2.82,2.56,6.57,4.08,10.3,6.31-2.15.59-4.05,1.1-6.58,1.79,6.64,5.37,12.87,10.29,18.97,15.36,12.11,10.06,21.31,22.16,23.4,38.16,1.37,10.45,1.33,21.09,1.96,32.35-9.21-10.9-17.54-20.77-25.87-30.64-.49.31-.98.63-1.46.94.83,2.88,1.65,5.75,2.61,9.1-6.65-6.98-12.91-13.55-19.81-20.79-7.31,13.33-20.43,18.06-30.47,26.51-14.28,12.02-24.77,26.77-24.59,46.25.06,6.24,3.68,12.71,6.64,18.59,3.35,6.68,3.34,8.51-3.24,11.94-4.18,2.17-8.49,4.08-13.18,6.32,2.84,5.42,5.24,10.82,8.39,15.73,2.68,4.17,1.79,6.77-1.9,9.48-10.21,7.49-20.42,15-30.4,22.79-4,3.13-7.62,6.83-11.03,10.61-5.38,5.95-5.37,11.68.52,17.3,6.87,6.54,14.29,12.49,21.86,19.03-12.62-.63-23.36-5.73-33.17-10.69,2.33,11.42,5.61,23.24,6.96,35.29,1.39,12.39-2.51,23.95-9.96,34.2,8.08-21.4.44-38.45-14.23-53.65-.41-.26-.82-.53-1.23-.79l.55,1.46.05-.03ZM508.6,156.19c-2.09-2.27-4.19-4.54-6.28-6.82-.4.42-.81.85-1.21,1.27,2.26,2.13,4.53,4.26,6.79,6.4.47.86.79,1.84,1.42,2.56,10.61,11.98,19.48,25.15,27.11,39.18,11.49,21.1,20.18,43.29,24.6,66.94,3.11,16.67,5.5,33.49,8.09,49.51-.25.37.29-.12.45-.71,4.27-15.72,4.71-31.72,2.11-47.64-3.3-20.19-10.36-39.15-20.69-56.9-11.61-19.95-25.81-37.8-42.4-53.79h0ZM341.1,376.83c14.68,8.01,25.42,20.05,34.6,34.18-2.37-22.54-49.75-66.73-69.77-65.43,3.1,8.33,6.3,16.56,9.22,24.9,2.24,6.4,6.21,11.38,10.88,16.23,9.04,9.39,17.52,19.31,26.2,29.04,1.61,1.81,3.06,3.76,4.58,5.65.39-.26.78-.53,1.17-.79-3.44-8.02-6.88-16.04-9.81-22.88,2.1,1.76,4.87,4.08,7.65,6.41.29.19.58.38.86.58v-1.2c-5.51-8.65-11.02-17.3-16.53-25.95.31-.24.63-.48.94-.72v-.02ZM557.38,642.74c-6.57-6.52-12.61-13.72-19.84-19.42-13.35-10.52-28.27-13.25-42.11-4.33-7.75,5-11.3,10.39-9.19,16.68,8.67,0,17.11-1.04,25.18.24,12.82,2.03,22.85,9.98,31.21,19.41,7.73,8.72,14.35,18.42,21.53,27.62,3.47,4.44,6.67,5.14,11.63,2.63,16.16-8.17,25.62-21.84,29.91-38.87,2.23-8.87-1.54-17.15-6.64-25.19-4.15,6.13-7.85,11.6-12,17.73.93-16.42,6.32-32.55-4.24-48.49-1.08,5.01-1.84,8.51-2.69,12.48-10.6-9.82-21.57-16.29-36.27-13.75,5.61,4.89,11.37,9.02,15.96,14.18,4.66,5.24,7.71,11.71,9.44,19.85-3.73-5.06-6.52-9.34-9.81-13.19-11.13-13.04-25.48-19.75-42.08-14.51-19.2,6.06-40.01,6.96-60.8,5.56,11.03-3.71,21.77-5.95,31.01-13.6-25.37.58-49.93,1.74-73.66-11.54,5.57.33,9.66.57,13.76.8-3.39-4.33-7.24-7.52-10.98-10.83-10.68-9.46-22.07-16.41-37.36-15.43-17.19,1.1-27.28,13.5-26.1,29.03,1.11,14.65,7.74,27.61,15.06,40.02,1.3,2.2,5.65,4.03,8.34,3.73,13.54-1.5,26.93-4.32,40.48-5.6,16.02-1.51,32.14-1.93,48.22-2.82l.22,1.51c-25.12,7.07-48.41,17.64-69.02,35.1,2.63.18,4.33.29,7.16.48-4.12,1.51-7.15,2.64-10.18,3.74-17.04,6.16-31.57,15.64-40.02,32.25-5.29,10.39-7.49,21.43-5.79,33.37,1.82,12.75,5.17,24.93,10.16,36.76-.78-12.9-1.73-25.75-3.27-38.53-1.11-9.17.53-17.63,5.4-25.27,8.77-13.74,22.55-21.35,36.49-28.58,4.34-2.26,8.78-1.47,12.51,1.6,2.27,1.87,4.21,4.21,6.08,6.52,8.67,10.67,17.64,21.1,29.33,28.57,5.7,3.64,12.06,6.25,18.5,9.52-16.5-.03-30.98-6.16-45.76-12.47,0,1.55-.27,2.62.04,3.48,3.78,10.65,10.18,19.57,21.68,21.55,15.37,2.64,31.02,4.72,46.58,4.93,25.05.34,50.13-1.5,75.2-1.52,14.74-.01,29.1-1.18,43.08-5.85,0-.17.07-.42,0-.47-1.47-1.01-2.91-2.1-4.46-2.97-12.38-6.97-25.33-11.07-39.76-7.92-3.67.8-7.48,1.96-11.13,1.68-5.19-.4-7.92-4.63-10.58-8.76-10.98-17.08-25.54-29.96-44.43-37.87-4.58-1.92-9.92-3.88-12.86-7.49-7.71-9.46-7.22-25.53-.13-35.72,10.49-15.07,34.42-21.53,50.77-13.27,13.52,6.84,21.21,18.87,27.03,32.31-.26.32-.53.63-.79.95v-.02ZM599.19,571.15c2.83-3.31,5.65-6.61,8.48-9.92.3.05.6.11.9.16-.71,4.27-1.41,8.53-2.19,13.22,1.95-.79,3.69-1.28,5.21-2.15,8.27-4.71,16.7-9.19,24.68-14.37,14.48-9.41,28.72-19.2,42.93-29.01,1.68-1.16,3.55-3.49,3.59-5.32.13-5.53-7.09-10.68-12.7-9.59-1.21.24-2.39.62-3.58.94-.1-.22-.21-.43-.31-.65,3.21-2.63,6.43-5.26,9.68-7.92-5.7-5.22-8.99-5.87-14.89-2.44-5.97,3.48-11.77,7.27-17.58,11.01-4.16,2.68-8.22,5.52-12.33,8.29,0-1.66.55-2.6,1.26-3.41,6.21-7.04,11.64-14.69,12.49-24.24,1.18-13.24,1.97-26.56,2.03-39.85.04-8.8-1.5-17.6-2.39-26.91-26.78,14.54-48.98,33.41-69.33,53.51-7.02-8.33-13.53-16.86-20.88-24.58-17.48-18.37-37.51-33.81-58.57-47.77-19.35-12.84-39.32-24.74-59.13-36.88-5.77-3.54-11.92-6.48-18.48-10.01,0,2.03-.12,3.03.02,4,1.64,11.73,2.95,23.52,5.07,35.16,2.2,12.06,4.99,24.02,7.92,35.92,1.67,6.75,9.01,13.71,14.64,14.91-9.29-16.25-12.7-26.45-10.84-33.55,16.66,34.81,44.9,59.28,71.79,84.99-2.36-.61-4.35-1.59-6.24-2.75-24.89-15.22-50.22-29.57-77.6-39.98-12.71-4.83-24.96-4.74-36.01,3.76-8.86,6.82-17.17,14.35-25.66,21.64-.94.81-2.07,2.14-2.04,3.2.23,8.01.72,16.01,1.13,24.02.64,0,1.28.01,1.92.02.27-1.21.55-2.41.81-3.62,1.36-6.3,3.85-11.97,9.79-15.23,4.45-2.44,9.72-3.39,13.12-7.72.58-.74,2.15-1.06,3.23-1.01,11.37.59,22.77.93,34.08,2.15,5.06.55,9.92,2.93,14.87,4.47-.12.45-.24.89-.37,1.34-3.83-.23-7.66-.46-11.48-.69-.04.33-.07.67-.11,1,7.42,3.45,14.83,6.89,22.81,10.6-2.16,1.48-3.55,2.42-5.26,3.58,5.13,4.54,9.93,8.84,14.8,13.06,13.34,11.57,26.71,23.11,40.06,34.66,9.31,8.05,18.11,17.03,31.28,18.45,11.82,1.28,25.62-6.82,22.45-22.95-.69-3.53-1.67-7-2.51-10.5.29-.39.57-.78.86-1.17,8.26,6.84,11.91,16.15,13.77,26.77,4.03-7.35,2.38-14.5,1.38-21.61.29-.35.58-.7.88-1.05,4.28,9.77,8.57,19.53,12.9,29.41,11.1-7.29,18.84-18.99,27.54-29.97-2.92,8.64-5.84,17.28-8.77,25.92,0,.4-.01.8-.02,1.2.3-.18.6-.37.9-.55h0ZM227.57,406.91c.04-.35.09-.7.13-1.05-7.72-2.6-15.27-6.08-23.2-7.62-14.04-2.71-28.29-4.34-42.47-6.23-15.88-2.12-31.05-6.45-45.18-14.09-2.69-1.46-5.21-3.24-7.81-4.87,1.65,3.65,3.6,6.76,6.07,9.37,14.3,15.12,30.16,28.58,48.46,38.36,25.2,13.48,51.24,25.41,76.73,38.37,6.52,3.32,12.65,7.62,18.44,12.13,10.25,7.98,16.35,19,21.05,31.02.62-2.85,1.14-5.61,1.1-8.37-.15-11.04-3.82-21.21-7.84-31.31-.67-1.69-.94-4.65.04-5.68,3.25-3.44,1.86-6.16-.21-9.24-6.02-8.92-14.57-14.81-23.99-19.34-12.67-6.1-26.36-8.73-40.24-10.45-4.15-.51-8.27-1.25-12.4-1.88.02-.39.03-.79.05-1.18,10.42-2.65,20.85-5.3,31.27-7.95h0ZM541.75,807.99c.65-.18,1.31-.36,1.96-.54-1.99-9.03-3.55-18.19-6.11-27.06-2.42-8.4-8.78-13.67-17.26-14.88-6.8-.97-13.99-1.05-20.78,0-17.64,2.73-35.16,6.19-52.69,9.6-4.61.9-9.89,1.59-13.38,4.29-5.98,4.64-9.11,11.72-11.62,19.62,6.88-4.75,13.11-9.05,20.52-14.16-7.66,15.43-7.84,29.16-4.73,34.74,6.65-19.1,21.14-29.54,39.64-36.11-8.69,11.91-11.73,24.81-8,39.22,9.27-25.19,23.35-39.19,37.96-37.22-7.01,7.72-10.46,16.7-7.81,26.58,2.69,10.02,10.38,15.73,20.66,19.22-3.21-15.85.75-28.96,11.46-40.34,3.54,5.92,6.86,11.47,10.18,17.03h0ZM585.4,380.42c.27.17.54.34.81.51,2.28-4.46,4.6-8.91,6.85-13.4,14.12-28.21,19.09-57.94,13.71-89.05-4.34-25.09-14.42-48.05-28.3-69.3-17.6-26.95-40.55-48.64-66.76-67.05-4.26-2.99-8.75-5.65-12.87-8.29,12.54,13.35,25.6,26.31,37.58,40.22,17.6,20.45,31.33,43.44,41.58,68.44,8.23,20.08,15.06,40.63,15.98,62.49.54,12.97.45,26.11-1.02,38.99-1.4,12.27-4.95,24.3-7.55,36.44h-.01ZM371.43,696.14c8.88,10.91,17.24,21.31,25.75,31.58,7.03,8.48,15.74,14.35,26.8,16.18,7.14,1.18,14.37,1.82,21.45,3.24,24.28,4.86,48.83,7.44,73.51,8.65,16.59.81,33.22,1.07,49.83,1,4.94-.02,10.08-1.46,14.75-3.23,6.87-2.61,7.11-4.47,3-10.89-5.97,1.1-11.87,3.15-17.75,3.1-19.23-.17-38.52-.33-57.66-1.95-21.13-1.79-42.15-4.91-63.15-7.96-17-2.47-30.98-10.48-41.27-24.59-4.76-6.52-9.76-12.9-15.09-18.95-1.35-1.53-4.72-2.59-6.64-2.04-4.51,1.29-8.7,3.68-13.53,5.86h0ZM343.63,213.49c.02.58.04,1.17.06,1.75,2.72.24,5.44.46,8.16.72,11.18,1.05,22.48,1.4,33.5,3.33,23.83,4.17,46.59,11.64,67.54,24.19,19.23,11.52,36.47,25.34,51.44,42.07,19.43,21.71,30.73,46.97,34.18,76.73,3.64-14.71,2.94-28.73.11-42.42-6.54-31.57-24.24-55.85-51.21-73.14-28.47-18.25-60-28.31-93.51-31.52-16.66-1.59-33.5-1.2-50.26-1.7h0ZM665.79,173.29l-1.29.33c.18,1.22.16,2.5.56,3.65,7.98,23.41,15.12,46.94,17.26,71.84,1.48,17.2,2.7,34.37.46,51.48-3.6,27.52-16.34,50.97-33.92,72-5.38,6.43-10.97,12.68-16.47,19.01,1.38-.06,2.52-.39,3.32-1.1,10.15-9.04,20.84-17.56,30.21-27.35,11.41-11.92,19.82-26.12,24.96-41.88,8.12-24.92,6.98-50.18.32-75.09-4.26-15.94-9.99-31.5-15.37-47.12-3-8.7-6.66-17.18-10.02-25.76h-.02ZM659.22,185.69c-.92.05-1.84.11-2.76.16,20.21,72.07,9.88,138.61-35.34,198.97,2.05-1.13,3.28-2.53,4.51-3.93,11.69-13.23,23.69-26.22,32.53-41.68,11.66-20.41,19.01-42.14,18.69-65.84-.15-11.18-.73-22.58-3.11-33.44-4-18.26-9.6-36.17-14.52-54.23h0ZM469.97,293.93c-.91-1.34-1.77-2.72-2.73-4.02-14.97-20.25-35.06-33.25-58.38-42.08-31.29-11.85-64.45-13.56-96.95-18.99-13.84-2.31-27.58-5.46-41.17-8.99-6.31-1.64-12.16-5.1-18.21-7.73-.24.46-.49.93-.73,1.39,8.82,4.79,17.33,10.31,26.53,14.21,14.21,6.03,29.43,8.35,44.73,10.43,17.17,2.34,34.21,5.71,51.26,8.85,19.37,3.56,38.23,8.88,55.79,18.01,14.71,7.66,27.72,17.72,39.87,28.92h-.01ZM188.54,464.58c.48,10.04.64,20.1,1.5,30.11,2,23.24,11.97,42.8,28.38,59.19,6.26,6.25,7.31,6.35,14.74,1.91,4.76-2.85,4.87-5.57.35-8.92-4.89-3.62-9.97-7.03-14.65-10.91-6.93-5.75-12.81-12.3-14.42-21.7-1.33-7.77.92-14.96,3.51-22.04,2.32-6.34,5.1-12.51,7.74-18.89-16.4,2.35-17.11,4.45-27.17-8.75h.02ZM641.28,584.19c-4.38,10.56-12.79,15.01-23.72,17.19,3.86,2.2,7.06,4.02,10.26,5.84-.19.41-.38.83-.56,1.24-5.57-1.73-11.12-3.51-16.72-5.16-4.74-1.4-7.18.77-6.29,5.52.45,2.42.82,4.91,1.66,7.21,3.62,9.91,7.39,19.77,11.11,29.64,2.52-5.9.37-11.1-1.33-16.27-1.72-5.25-3.67-10.39-2.34-16.36,8.11,6.69,15.92,13,23.57,19.51,3.12,2.66,4.99,1.59,6.61-1.47,2.3-4.35,4.64-8.67,6.85-13.06,6.64-13.16,3.41-25.33-9.11-33.84h.01ZM316.61,562.51l1.23.22c3.51-4.24,6.71-8.79,10.59-12.65,5.02-5,10.13-6.95,14.28-6.5-18.23,15.52-14.28,42.78-6.99,59.97,0-3.24.36-6.53-.07-9.72-1.35-10.16.15-20.01,3.6-29.46,3.41-9.33,10.64-14.89,20.24-17.06,3.73-.84,5.14-3.56,4.88-6.32-.14-1.51-3.24-3.59-5.25-3.92-9.06-1.48-18.26-2.13-27.3-3.7-4.62-.81-7.52.15-8.76,4.67-2.24,8.13-4.31,16.31-6.45,24.47h0ZM195.08,544.75c-7.24-25.48-42.02-92.53-54.34-104.88.91,2.48,1.55,4.46,2.35,6.36,10.32,24.5,20.63,49,31.01,73.48,4.29,10.11,10.86,18.36,20.98,25.05h0ZM234.53,594.44c-21.84,13.06-39,29.89-51.69,52.96,1.77-.98,2.47-1.31,3.11-1.72,14.77-9.51,29.47-19.14,44.35-28.46,4.43-2.78,6.62-6.04,5.67-11.32-.63-3.53-.91-7.12-1.44-11.45h0ZM294.87,420.49c-2.28-10.58-11.01-16.6-17.22-24.55,14.6,7.06,29.19,14.11,44.66,21.59-11.83-16.28-65.88-42.27-86.06-41.96,21.35,12.57,40.65,27.79,58.61,44.92h.01ZM673.47,598.99c-4.91,11.41-4.37,13.9,4.96,20.77,4.5,3.31,9.24,6.31,15.01,10.22-2.37-14.35-9.15-23.91-19.97-30.99h0ZM784.49,427.59c-2.81.69-4.2,1.02-5.6,1.37-16.08,3.99-31.13,10.17-43.82,21.13-1.91,1.65-3.09,4.15-4.6,6.26.53.49,1.07.99,1.6,1.48,17.08-9.86,34.17-19.71,52.42-30.25h0ZM476.84,566.75c-4.95-2.41-9.06-4.41-13.2-6.42-5.57,3.68-6.66,3.54-11.39-1.65-2.12-2.33-4.17-4.73-6.25-7.1-.36.32-.71.64-1.07.96,1.65,7.58,7.18,11.96,13.83,15.12,5.75,2.73,11.7,4.01,18.08-.9h0ZM667.89,453.94c-.66.12-1.31.24-1.97.37v28.04c2.15-2.41,3.56-4,4.8-5.38.88,1.89,2.05,4.42,3.23,6.95.45-.16.9-.31,1.35-.47-2.47-9.84-4.94-19.67-7.41-29.51ZM234.15,121.12c7.34,6.78,15.78,10.05,24.91,11.52,2.1.34,4.43-.75,6.66-1.18-.08-.31-.17-.61-.25-.92-10.34-3.11-20.69-6.22-31.32-9.42h0ZM243.06,233.99c-.32-.38-.6-.72-.89-1.07-.23.2-.68.49-.64.59.16.43.47.81.72,1.2.23-.21.46-.42.8-.73h0Z"/>
  <path class="cls-2" d="M540.12,35.59l-1.98-1.02.36-.82c.87.35,1.74.71,2.6,1.06-.33.26-.66.52-.99.78h.01Z"/>
  <path class="cls-1" d="M27.45,203.39c.44-.56.87-1.12,1.31-1.68.21.12.41.24.62.36-.33.64-.66,1.29-.98,1.93-.31-.21-.63-.41-.94-.62h-.01Z"/>
  <path class="cls-3" d="M106.21,461.53c-.32-.46-.64-.92-.96-1.38.66.19,1.32.38,1.98.56-.34.27-.68.55-1.01.82h-.01Z"/>
  <path class="cls-2" d="M433.21,60.53c-.31-.47-.62-.94-.92-1.4.63.21,1.25.43,1.88.64-.32.25-.63.51-.95.76h0Z"/>
  <path class="cls-4" d="M565.76,546.18c1,7.11,2.65,14.25-1.38,21.61-1.87-10.62-5.51-19.92-13.77-26.77-.47-.3-.94-.59-1.41-.89.18.69.37,1.37.55,2.06.84,3.5,1.82,6.97,2.51,10.5,3.17,16.13-10.63,24.23-22.45,22.95-13.17-1.43-21.97-10.4-31.28-18.45-13.35-11.55-26.73-23.09-40.06-34.66-4.87-4.22-9.66-8.53-14.8-13.06,1.71-1.16,3.09-2.11,5.26-3.58-7.98-3.71-15.39-7.15-22.81-10.6.04-.33.07-.67.11-1,3.83.23,7.66.46,11.48.69.12-.45.24-.89.37-1.34-4.95-1.55-9.81-3.93-14.87-4.47-11.31-1.22-22.71-1.56-34.08-2.15-1.08-.06-2.65.26-3.23,1.01-3.4,4.33-8.67,5.28-13.12,7.72-5.94,3.26-8.43,8.92-9.79,15.23-.26,1.21-.54,2.42-.81,3.62-.64,0-1.28-.01-1.92-.02-.41-8.01-.91-16.01-1.13-24.02-.03-1.06,1.1-2.39,2.04-3.2,8.49-7.29,16.8-14.82,25.66-21.64,11.05-8.51,23.3-8.6,36.01-3.76,27.38,10.41,52.71,24.76,77.6,39.98,1.89,1.15,3.88,2.14,6.24,2.75-26.9-25.71-55.13-50.18-71.79-84.99-1.87,7.1,1.54,17.3,10.84,33.55-5.63-1.19-12.98-8.15-14.64-14.91-2.94-11.9-5.72-23.87-7.92-35.92-2.12-11.64-3.44-23.43-5.07-35.16-.13-.96-.02-1.96-.02-4,6.56,3.53,12.71,6.47,18.48,10.01,19.81,12.14,39.78,24.05,59.13,36.88,21.05,13.97,41.08,29.4,58.57,47.77,7.35,7.72,13.86,16.26,20.88,24.58,20.35-20.09,42.55-38.96,69.33-53.51.88,9.32,2.42,18.12,2.39,26.91-.06,13.29-.85,26.61-2.03,39.85-.85,9.55-6.28,17.2-12.49,24.24-.71.8-1.27,1.74-1.26,3.41,4.11-2.77,8.17-5.6,12.33-8.29,5.81-3.75,11.61-7.53,17.58-11.01,5.89-3.43,9.19-2.79,14.89,2.44-3.25,2.66-6.46,5.29-9.68,7.92.1.22.21.43.31.65,1.19-.32,2.37-.7,3.58-.94,5.61-1.09,12.83,4.06,12.7,9.59-.04,1.83-1.91,4.16-3.59,5.32-14.21,9.82-28.45,19.6-42.93,29.01-7.97,5.18-16.41,9.66-24.68,14.37-1.52.87-3.26,1.36-5.21,2.15.77-4.69,1.48-8.95,2.19-13.22-.3-.05-.6-.11-.9-.16-2.83,3.31-5.65,6.61-8.48,9.92-.29-.22-.59-.43-.88-.65,2.92-8.64,5.84-17.28,8.77-25.92-8.7,10.98-16.44,22.67-27.54,29.97-4.33-9.88-8.62-19.64-12.9-29.41-.39-.55-.78-1.1-1.17-1.64-.2.1-.39.19-.59.29.29.8.59,1.6.88,2.4h0ZM550.58,509.39c-.25.31-.49.62-.74.93-6.48-4.88-13.19-9.48-19.38-14.71-6.32-5.35-12.24-11.2-18.13-17.04-5.68-5.64-11.1-11.55-16.64-17.34-.34.32-.69.63-1.03.95.48.8.87,1.65,1.44,2.38,7.95,10.27,15.46,20.94,24.02,30.68,11.59,13.19,24,25.7,40.65,32.67,10.46,4.38,21.33,7.08,32.64,4.17,16.49-4.23,24.55-16.66,29.63-31.71.48-1.41,1.03-2.8,1.39-4.23.31-1.21.39-2.48.57-3.72-6.12,8.61-11.55,17.37-20.59,23.15.14-1.65.27-3.08.48-5.55-6.95,5.96-13.67,9.32-21.93,8.94-10.05-.45-18.81-4.3-27.02-9.73-3.32-2.2-6.57-4.49-9.85-6.74l-.84,1c1.77,1.96,3.54,3.92,5.31,5.88l.02.02ZM492.98,457.74c-.38.44-.76.88-1.14,1.33.56.46,1.13.92,1.69,1.38.16-.24.52-.56.46-.72-.27-.69-.66-1.33-1.01-1.99h0ZM544.51,502.95c.4-.19.66-.32.92-.44-.23-.4-.45-.81-.68-1.21-.23.14-.66.31-.65.43.05.41.25.8.41,1.23h0ZM628.47,524.02c-.17.42-.37.82-.46,1.25-.02.08.63.39.65.36.27-.38.49-.79.71-1.2-.26-.12-.52-.24-.9-.41Z"/>
  <path class="cls-4" d="M558.17,641.79c-5.83-13.44-13.51-25.47-27.03-32.31-16.35-8.27-40.27-1.81-50.77,13.27-7.09,10.19-7.59,26.26.13,35.72,2.95,3.61,8.28,5.58,12.86,7.49,18.89,7.91,33.45,20.79,44.43,37.87,2.65,4.13,5.39,8.36,10.58,8.76,3.65.28,7.45-.87,11.13-1.68,14.43-3.15,27.38.95,39.76,7.92,1.55.87,2.99,1.96,4.46,2.97.08.05,0,.31,0,.47-13.98,4.67-28.34,5.84-43.08,5.85-25.07.02-50.15,1.86-75.2,1.52-15.56-.21-31.21-2.29-46.58-4.93-11.5-1.98-17.9-10.9-21.68-21.55-.31-.86-.04-1.92-.04-3.48,14.78,6.31,29.27,12.44,45.76,12.47-6.44-3.27-12.8-5.88-18.5-9.52-11.69-7.46-20.66-17.89-29.33-28.57-1.87-2.3-3.81-4.64-6.08-6.52-3.72-3.07-8.17-3.86-12.51-1.6-13.94,7.24-27.72,14.84-36.49,28.58-4.87,7.63-6.51,16.1-5.4,25.27,1.54,12.78,2.5,25.63,3.27,38.53-4.99-11.83-8.34-24.01-10.16-36.76-1.71-11.94.5-22.98,5.79-33.37,8.46-16.6,22.98-26.09,40.02-32.25,3.03-1.1,6.06-2.22,10.18-3.74-2.83-.19-4.52-.3-7.16-.48,20.61-17.46,43.9-28.03,69.02-35.1l-.22-1.51c-16.08.89-32.2,1.31-48.22,2.82-13.55,1.28-26.95,4.1-40.48,5.6-2.69.3-7.04-1.53-8.34-3.73-7.32-12.41-13.95-25.37-15.06-40.02-1.18-15.53,8.91-27.93,26.1-29.03,15.29-.98,26.69,5.97,37.36,15.43,3.74,3.31,7.59,6.5,10.98,10.83-4.1-.24-8.2-.48-13.76-.8,23.72,13.28,48.28,12.12,73.66,11.54-9.24,7.65-19.98,9.89-31.01,13.6,20.8,1.41,41.6.5,60.8-5.56,16.6-5.24,30.95,1.48,42.08,14.51,3.29,3.85,6.07,8.13,9.81,13.19-1.73-8.14-4.78-14.61-9.44-19.85-4.59-5.17-10.36-9.29-15.96-14.18,14.7-2.54,25.67,3.93,36.27,13.75.86-3.97,1.61-7.47,2.69-12.48,10.56,15.94,5.17,32.07,4.24,48.49,4.15-6.13,7.85-11.6,12-17.73,5.11,8.03,8.88,16.31,6.64,25.19-4.29,17.03-13.74,30.7-29.91,38.87-4.96,2.51-8.17,1.81-11.63-2.63-7.19-9.2-13.81-18.9-21.53-27.62-8.36-9.44-18.39-17.39-31.21-19.41-8.07-1.28-16.52-.24-25.18-.24-2.11-6.29,1.44-11.69,9.19-16.68,13.84-8.93,28.77-6.2,42.11,4.33,7.22,5.7,13.26,12.89,19.84,19.42.23.61.45,1.22.68,1.84.38-.33.77-.65,1.15-.98-.35-.6-.69-1.2-1.04-1.81v.02Z"/>
  <path class="cls-4" d="M227.57,406.91c-10.42,2.65-20.85,5.3-31.27,7.95-.02.39-.03.79-.05,1.18,4.13.63,8.25,1.36,12.4,1.88,13.88,1.72,27.57,4.36,40.24,10.45,9.42,4.53,17.97,10.42,23.99,19.34,2.07,3.07,3.46,5.8.21,9.24-.97,1.03-.71,3.99-.04,5.68,4.02,10.1,7.68,20.27,7.84,31.31.04,2.76-.48,5.52-1.1,8.37-4.7-12.02-10.81-23.04-21.05-31.02-5.79-4.51-11.92-8.81-18.44-12.13-25.49-12.96-51.53-24.89-76.73-38.37-18.29-9.79-34.16-23.24-48.46-38.36-2.47-2.61-4.41-5.71-6.07-9.37,2.6,1.63,5.11,3.41,7.81,4.87,14.13,7.64,29.3,11.97,45.18,14.09,14.19,1.89,28.44,3.52,42.47,6.23,7.93,1.53,15.48,5.01,23.2,7.62-.04.35-.09.7-.13,1.05h0Z"/>
  <path class="cls-4" d="M541.75,807.99c-3.32-5.56-6.65-11.12-10.18-17.03-10.7,11.38-14.67,24.49-11.46,40.34-10.28-3.49-17.96-9.2-20.66-19.22-2.65-9.88.8-18.86,7.81-26.58-14.61-1.97-28.69,12.03-37.96,37.22-3.73-14.41-.69-27.31,8-39.22-18.5,6.57-32.98,17.01-39.64,36.11-3.11-5.58-2.93-19.31,4.73-34.74-7.4,5.11-13.63,9.41-20.52,14.16,2.5-7.9,5.64-14.98,11.62-19.62,3.48-2.7,8.77-3.39,13.38-4.29,17.52-3.41,35.05-6.87,52.69-9.6,6.78-1.05,13.97-.97,20.78,0,8.49,1.21,14.85,6.48,17.26,14.88,2.55,8.87,4.11,18.03,6.11,27.06-.65.18-1.31.36-1.96.54h0Z"/>
  <path class="cls-4" d="M585.4,380.42c2.6-12.14,6.16-24.17,7.55-36.44,1.47-12.88,1.57-26.02,1.02-38.99-.92-21.86-7.75-42.41-15.98-62.49-10.24-25-23.98-48-41.58-68.44-11.97-13.9-25.03-26.87-37.58-40.22,4.12,2.64,8.61,5.3,12.87,8.29,26.21,18.4,49.16,40.09,66.76,67.05,13.88,21.26,23.96,44.21,28.3,69.3,5.38,31.12.4,60.84-13.71,89.05-2.24,4.48-4.56,8.93-6.85,13.4-.27-.17-.54-.34-.81-.51h.01Z"/>
  <path class="cls-4" d="M371.43,696.14c4.83-2.18,9.03-4.57,13.53-5.86,1.92-.55,5.29.51,6.64,2.04,5.34,6.05,10.34,12.43,15.09,18.95,10.29,14.11,24.27,22.12,41.27,24.59,21,3.06,42.02,6.18,63.15,7.96,19.14,1.62,38.43,1.78,57.66,1.95,5.89.05,11.79-2,17.75-3.1,4.11,6.41,3.87,8.28-3,10.89-4.67,1.77-9.81,3.21-14.75,3.23-16.61.07-33.24-.19-49.83-1-24.68-1.21-49.23-3.79-73.51-8.65-7.08-1.42-14.32-2.06-21.45-3.24-11.05-1.82-19.77-7.7-26.8-16.18-8.51-10.28-16.87-20.67-25.75-31.58h0Z"/>
  <path class="cls-4" d="M343.63,213.49c16.76.5,33.61.11,50.26,1.7,33.51,3.21,65.03,13.27,93.51,31.52,26.97,17.29,44.67,41.57,51.21,73.14,2.84,13.69,3.53,27.71-.11,42.42-3.45-29.76-14.75-55.02-34.18-76.73-14.97-16.73-32.21-30.55-51.44-42.07-20.95-12.55-43.7-20.01-67.54-24.19-11.02-1.93-22.32-2.27-33.5-3.33-2.72-.26-5.44-.48-8.16-.72-.02-.58-.04-1.17-.06-1.75h0Z"/>
  <path class="cls-4" d="M665.79,173.29c3.36,8.58,7.02,17.06,10.02,25.76,5.39,15.62,11.11,31.18,15.37,47.12,6.66,24.92,7.8,50.18-.32,75.09-5.14,15.76-13.55,29.96-24.96,41.88-9.37,9.79-20.06,18.31-30.21,27.35-.8.71-1.94,1.04-3.32,1.1,5.5-6.33,11.09-12.58,16.47-19.01,17.59-21.03,30.32-44.48,33.92-72,2.24-17.11,1.02-34.28-.46-51.48-2.14-24.9-9.28-48.43-17.26-71.84-.39-1.15-.38-2.43-.56-3.65l1.29-.33h.02Z"/>
  <path class="cls-4" d="M659.22,185.69c4.93,18.06,10.52,35.97,14.52,54.23,2.38,10.86,2.95,22.26,3.11,33.44.33,23.69-7.03,45.43-18.69,65.84-8.83,15.46-20.83,28.45-32.53,41.68-1.24,1.4-2.46,2.8-4.51,3.93,45.21-60.35,55.55-126.9,35.34-198.97.92-.05,1.84-.11,2.76-.16h0Z"/>
  <path class="cls-4" d="M355.83,404.12c-2.78-2.33-5.55-4.65-7.65-6.41,2.93,6.84,6.37,14.86,9.81,22.88-.39.26-.78.53-1.17.79-1.52-1.89-2.97-3.84-4.58-5.65-8.68-9.73-17.16-19.65-26.2-29.04-4.67-4.85-8.63-9.83-10.88-16.23-2.92-8.33-6.12-16.57-9.22-24.9,20.02-1.3,67.39,42.88,69.77,65.43-9.18-14.13-19.93-26.17-34.6-34.18-.62-.23-1.23-.47-1.85-.7.3.48.6.95.91,1.43,5.51,8.65,11.02,17.3,16.53,25.95-.29.21-.58.41-.87.62h0Z"/>
  <path class="cls-4" d="M469.97,293.93c-12.15-11.2-25.15-21.27-39.87-28.92-17.55-9.13-36.42-14.45-55.79-18.01-17.06-3.14-34.09-6.51-51.26-8.85-15.3-2.08-30.52-4.4-44.73-10.43-9.2-3.9-17.71-9.42-26.53-14.21.24-.46.49-.93.73-1.39,6.06,2.63,11.9,6.09,18.21,7.73,13.59,3.53,27.33,6.68,41.17,8.99,32.5,5.43,65.66,7.14,96.95,18.99,23.33,8.83,43.41,21.83,58.38,42.08.96,1.3,1.82,2.68,2.73,4.02h.01Z"/>
  <path class="cls-4" d="M188.54,464.58c10.06,13.2,10.77,11.1,27.17,8.75-2.64,6.39-5.41,12.56-7.74,18.89-2.6,7.08-4.84,14.27-3.51,22.04,1.61,9.39,7.48,15.95,14.42,21.7,4.68,3.88,9.75,7.29,14.65,10.91,4.52,3.35,4.41,6.06-.35,8.92-7.43,4.45-8.48,4.35-14.74-1.91-16.41-16.39-26.38-35.95-28.38-59.19-.86-10.01-1.02-20.07-1.5-30.11h-.02Z"/>
  <path class="cls-4" d="M641.28,584.19c12.51,8.51,15.74,20.68,9.11,33.84-2.21,4.39-4.56,8.71-6.85,13.06-1.62,3.06-3.48,4.13-6.61,1.47-7.65-6.51-15.47-12.83-23.57-19.51-1.33,5.97.62,11.11,2.34,16.36,1.7,5.17,3.85,10.38,1.33,16.27-3.72-9.88-7.49-19.73-11.11-29.64-.84-2.3-1.21-4.78-1.66-7.21-.89-4.76,1.55-6.92,6.29-5.52,5.59,1.65,11.15,3.43,16.72,5.16.19-.41.38-.83.56-1.24-3.2-1.82-6.4-3.65-10.26-5.84,10.92-2.17,19.33-6.63,23.72-17.19h-.01Z"/>
  <path class="cls-4" d="M508.6,156.19c16.59,15.99,30.8,33.84,42.4,53.79,10.33,17.75,17.39,36.71,20.69,56.9,2.6,15.92,2.16,31.92-2.11,47.64-.16.59-.7,1.08-.45.71-2.59-16.02-4.98-32.83-8.09-49.51-4.42-23.66-13.12-45.84-24.6-66.94-7.64-14.03-16.5-27.21-27.11-39.18-.63-.71-.96-1.7-1.42-2.56.23-.28.47-.57.7-.85h-.01Z"/>
  <path class="cls-4" d="M316.61,562.51c2.14-8.16,4.21-16.34,6.45-24.47,1.24-4.51,4.14-5.47,8.76-4.67,9.04,1.58,18.24,2.22,27.3,3.7,2.01.33,5.11,2.41,5.25,3.92.26,2.76-1.15,5.47-4.88,6.32-9.59,2.17-16.83,7.72-20.24,17.06-3.45,9.45-4.95,19.29-3.6,29.46.42,3.19.07,6.48.06,9.72-7.28-17.19-11.23-44.45,7-59.97-4.15-.45-9.26,1.5-14.28,6.5-3.88,3.87-7.09,8.41-10.59,12.65l-1.23-.22h0Z"/>
  <path class="cls-4" d="M195.08,544.75c-10.12-6.69-16.69-14.93-20.98-25.05-10.38-24.48-20.69-48.98-31.01-73.48-.8-1.9-1.44-3.88-2.35-6.36,12.32,12.35,47.1,79.4,54.34,104.88h0Z"/>
  <path class="cls-4" d="M234.53,594.44c.53,4.33.81,7.92,1.44,11.45.94,5.28-1.24,8.54-5.67,11.32-14.88,9.33-29.58,18.96-44.35,28.46-.64.41-1.34.75-3.11,1.72,12.69-23.07,29.85-39.9,51.69-52.96h0Z"/>
  <path class="cls-4" d="M294.87,420.49c-17.96-17.13-37.27-32.35-58.61-44.92,20.18-.31,74.22,25.69,86.05,41.97-15.47-7.48-30.07-14.54-44.66-21.59,6.21,7.95,14.94,13.96,17.22,24.55h0Z"/>
  <path class="cls-4" d="M673.47,598.99c10.82,7.08,17.61,16.64,19.97,30.99-5.77-3.91-10.51-6.9-15.01-10.22-9.33-6.87-9.87-9.36-4.96-20.77h0Z"/>
  <path class="cls-4" d="M784.49,427.59c-18.25,10.53-35.33,20.39-52.42,30.25-.53-.49-1.07-.99-1.6-1.48,1.52-2.11,2.69-4.61,4.6-6.26,12.69-10.96,27.74-17.14,43.82-21.13,1.39-.35,2.79-.68,5.6-1.37h0Z"/>
  <path class="cls-4" d="M476.84,566.75c-6.38,4.91-12.32,3.64-18.08.9-6.65-3.16-12.17-7.54-13.83-15.12.36-.32.71-.64,1.07-.96,2.08,2.37,4.12,4.77,6.25,7.1,4.74,5.19,5.82,5.33,11.39,1.65,4.14,2.02,8.25,4.01,13.2,6.42h0Z"/>
  <path class="cls-4" d="M667.89,453.94c2.47,9.84,4.94,19.67,7.41,29.51-.45.16-.9.31-1.35.47-1.18-2.53-2.35-5.06-3.23-6.95-1.23,1.38-2.65,2.97-4.8,5.38v-28.04c.66-.12,1.31-.24,1.97-.37Z"/>
  <path class="cls-4" d="M234.15,121.12c10.63,3.2,20.98,6.31,31.32,9.42.08.31.17.61.25.92-2.23.43-4.56,1.52-6.66,1.18-9.14-1.47-17.58-4.74-24.91-11.52h0Z"/>
  <path class="cls-4" d="M507.9,157.04c-2.26-2.13-4.53-4.26-6.79-6.4.4-.42.81-.85,1.21-1.27,2.09,2.27,4.19,4.54,6.28,6.82-.23.28-.47.57-.7.85h0Z"/>
  <path class="cls-3" d="M243.06,233.99c-.35.31-.57.52-.8.73-.25-.4-.56-.77-.72-1.2-.04-.1.41-.39.64-.59.28.34.57.68.89,1.07h0Z"/>
  <path class="cls-4" d="M356.7,403.5v1.2c-.29-.19-.58-.38-.86-.58.29-.21.58-.41.87-.62h-.01Z"/>
  <path class="cls-4" d="M599.19,571.15c-.3.18-.6.37-.9.55,0-.4.01-.8.02-1.2.29.22.59.43.88.65Z"/>
  <path class="cls-2" d="M550.58,509.39c-1.77-1.96-3.54-3.92-5.31-5.88l.84-1c3.28,2.25,6.53,4.55,9.85,6.74,8.21,5.44,16.97,9.28,27.02,9.73,8.26.37,14.97-2.98,21.93-8.94-.21,2.46-.33,3.9-.48,5.55,9.03-5.79,14.46-14.55,20.59-23.15-.18,1.24-.27,2.51-.57,3.72-.36,1.44-.92,2.83-1.39,4.23-5.08,15.05-13.14,27.48-29.63,31.71-11.31,2.9-22.18.21-32.64-4.17-16.65-6.98-29.06-19.48-40.65-32.67-8.56-9.74-16.06-20.41-24.02-30.68-.56-.73-.96-1.58-1.44-2.38.34-.32.69-.63,1.03-.95,5.53,5.79,10.95,11.7,16.64,17.34,5.89,5.84,11.8,11.69,18.13,17.04,6.18,5.23,12.9,9.83,19.38,14.71.25-.31.49-.62.74-.93l-.02-.02Z"/>
  <path class="cls-3" d="M565.76,546.18c-.29-.8-.59-1.6-.88-2.4.2-.1.39-.19.59-.29.39.55.78,1.1,1.17,1.64-.29.35-.58.7-.88,1.04h0Z"/>
  <path class="cls-4" d="M492.98,457.74c.35.66.74,1.3,1.01,1.99.06.16-.29.48-.46.72-.56-.46-1.13-.92-1.69-1.38.38-.44.76-.88,1.14-1.33h0Z"/>
  <path class="cls-4" d="M544.51,502.95c-.15-.43-.36-.82-.41-1.23-.01-.11.42-.28.65-.43.23.4.45.81.68,1.21-.26.13-.52.25-.92.44h0Z"/>
  <path class="cls-4" d="M628.47,524.02c.38.17.64.29.9.41-.23.41-.44.82-.71,1.2-.02.03-.67-.28-.65-.36.09-.42.29-.82.46-1.25Z"/>
  <path class="cls-3" d="M549.75,542.19c-.18-.69-.37-1.37-.55-2.06.47.3.94.59,1.41.89-.29.39-.57.78-.86,1.17Z"/>
  <path class="cls-1" d="M558.17,641.79c.35.6.69,1.2,1.04,1.81-.38.33-.77.65-1.15.98-.23-.61-.45-1.22-.68-1.84.26-.32.53-.63.79-.95h0Z"/>
  <path class="cls-1" d="M340.16,377.55c-.3-.48-.6-.95-.91-1.43.62.23,1.23.47,1.85.7-.31.24-.63.48-.94.72h0Z"/>
</svg>